<svg id="logo" xmlns="http://www.w3.org/2000/svg" viewBox="0 0 110.87 15.93" width="100" height="75"><defs>
<style>
.cls-1{fill:#212020;}
.cls-2{fill:#528be6;}
</style>
</defs
><title>logo</title>
<path class="cls-1" d="M10.06,12.53H4.46L3.4,15.72H0L5.77.21h3l5.81,15.51h-3.4ZM5.32,9.94H9.2L7.25,4.13Z"/><path class="cls-1" d="M28.59,15.72H25.4L19.18,5.52v10.2H16V.21h3.19l6.23,10.23V.21h3.18Z"/><path class="cls-1" d="M31.34,14.21a1.58,1.58,0,0,1,.5-1.2,1.77,1.77,0,0,1,1.24-.45,1.79,1.79,0,0,1,1.25.45,1.58,1.58,0,0,1,.5,1.2,1.54,1.54,0,0,1-.49,1.17,1.76,1.76,0,0,1-1.26.46,1.74,1.74,0,0,1-1.25-.46A1.54,1.54,0,0,1,31.34,14.21Z"/><path class="cls-2" d="M49.8,11.25l2.09-11h3.18L51.63,15.72H48.41L45.89,5.35,43.37,15.72H40.15L36.71.21h3.18l2.1,11,2.56-11h2.7Z"/><path class="cls-2" d="M69.53,8.32a9.35,9.35,0,0,1-.81,4A6.17,6.17,0,0,1,66.41,15a6.86,6.86,0,0,1-6.9,0,6.09,6.09,0,0,1-2.34-2.64,8.94,8.94,0,0,1-.84-4V7.64a9.37,9.37,0,0,1,.82-4A6.16,6.16,0,0,1,59.48.93a6.85,6.85,0,0,1,6.89,0A6.12,6.12,0,0,1,68.71,3.6a9.36,9.36,0,0,1,.82,4ZM66.3,7.61a6.52,6.52,0,0,0-.88-3.7,3.08,3.08,0,0,0-5,0,6.51,6.51,0,0,0-.89,3.67v.76A6.6,6.6,0,0,0,60.44,12,2.84,2.84,0,0,0,63,13.31a2.81,2.81,0,0,0,2.47-1.26,6.55,6.55,0,0,0,.88-3.68Z"/><path class="cls-2" d="M77.6,10H75.05v5.68h-3.2V.21h5.77a6.46,6.46,0,0,1,4.23,1.23,4.21,4.21,0,0,1,1.5,3.46,4.77,4.77,0,0,1-.69,2.65,4.73,4.73,0,0,1-2.08,1.68l3.35,6.34v.15H80.5ZM75.05,7.45h2.58a2.62,2.62,0,0,0,1.86-.61,2.19,2.19,0,0,0,.66-1.69,2.35,2.35,0,0,0-.62-1.72,2.59,2.59,0,0,0-1.91-.63H75.05Z"/><path class="cls-2" d="M90.63,9.5,89,11.29v4.43h-3.2V.21H89v7l1.4-1.93,4-5.1h3.93L92.75,7.1l5.67,8.62H94.61Z"/><path class="cls-2" d="M107.66,11.65a1.63,1.63,0,0,0-.64-1.39,8.55,8.55,0,0,0-2.3-1,16.29,16.29,0,0,1-2.63-1.06,4.29,4.29,0,0,1-2.64-3.85,3.71,3.71,0,0,1,.71-2.24,4.67,4.67,0,0,1,2-1.54,7.68,7.68,0,0,1,3-.55,7,7,0,0,1,3,.6,4.76,4.76,0,0,1,2,1.7,4.51,4.51,0,0,1,.72,2.49h-3.2A2.06,2.06,0,0,0,107,3.14a2.75,2.75,0,0,0-1.89-.59,3,3,0,0,0-1.82.49,1.58,1.58,0,0,0-.65,1.31,1.5,1.5,0,0,0,.76,1.26,8.75,8.75,0,0,0,2.25,1,9.75,9.75,0,0,1,4,2,4,4,0,0,1,1.25,3,3.73,3.73,0,0,1-1.53,3.16,6.67,6.67,0,0,1-4.1,1.14,8,8,0,0,1-3.26-.65,5.21,5.21,0,0,1-2.24-1.8A4.63,4.63,0,0,1,99,10.84h3.2c0,1.71,1,2.57,3.07,2.57a3,3,0,0,0,1.78-.47A1.47,1.47,0,0,0,107.66,11.65Z"/></svg>